<svg height="512" viewBox="0 0 512 512" width="512" xmlns="http://www.w3.org/2000/svg"><g><g><g><path d="m256 200h240v160h-240z" fill="#83d8f4"/><path d="m256 40v160h-240v-140a19.994 19.994 0 0 1 20-20z" fill="#78b9eb"/><path d="m16 200h240v160h-240z" fill="#ff5023"/><path d="m496 60v140h-240v-160h220a19.994 19.994 0 0 1 20 20z" fill="#ffda44"/><path d="m496 360v20a19.994 19.994 0 0 1 -20 20h-440a19.994 19.994 0 0 1 -20-20v-20z" fill="#d8d7da"/><path d="m320 448h-128l16-48h96z" fill="#787680"/><path d="m168 448h176v24h-176z" fill="#d8d7da"/></g><path d="m176 288a40 40 0 1 1 -40-40v40z" fill="#91cc04"/><path d="m200 264h-40v-40a40 40 0 0 1 40 40z" fill="#d8d7da"/><path d="m416 280a39.856 39.856 0 0 1 -8 24l-32-24v-40a40 40 0 0 1 40 40z" fill="#ff5023"/><path d="m408 304a40 40 0 1 1 -32-64v40z" fill="#d8d7da"/><path d="m376 280-16 32" fill="none"/></g><g><g><path d="m476 408h-440a28.032 28.032 0 0 1 -28-28v-320a28.032 28.032 0 0 1 28-28h440a28.032 28.032 0 0 1 28 28v320a28.032 28.032 0 0 1 -28 28zm-440-360a12.013 12.013 0 0 0 -12 12v320a12.013 12.013 0 0 0 12 12h440a12.013 12.013 0 0 0 12-12v-320a12.013 12.013 0 0 0 -12-12z"/><path d="m320 456h-128a8 8 0 0 1 -7.59-10.53l16-48a8 8 0 0 1 7.59-5.47h96a8 8 0 0 1 7.59 5.47l16 48a8 8 0 0 1 -7.59 10.53zm-116.9-16h105.8l-10.666-32h-84.468z"/><path d="m344 480h-176a8 8 0 0 1 -8-8v-24a8 8 0 0 1 8-8h176a8 8 0 0 1 8 8v24a8 8 0 0 1 -8 8zm-168-16h160v-8h-160z"/><path d="m496 368h-480a8 8 0 0 1 0-16h480a8 8 0 0 1 0 16z"/><path d="m376 480h-272a8 8 0 0 1 0-16h272a8 8 0 0 1 0 16z"/><path d="m408 480h-8a8 8 0 0 1 0-16h8a8 8 0 0 1 0 16z"/><path d="m496 208h-480a8 8 0 0 1 0-16h480a8 8 0 0 1 0 16z"/><path d="m256 368a8 8 0 0 1 -8-8v-320a8 8 0 0 1 16 0v320a8 8 0 0 1 -8 8z"/></g><path d="m160 160h-32a8 8 0 0 1 0-16h24v-8h-24a8 8 0 0 1 -8-8v-24a8 8 0 0 1 8-8h32a8 8 0 0 1 0 16h-24v8h24a8 8 0 0 1 8 8v24a8 8 0 0 1 -8 8z"/><path d="m144 112a8 8 0 0 1 -8-8v-8a8 8 0 0 1 16 0v8a8 8 0 0 1 -8 8z"/><path d="m144 168a8 8 0 0 1 -8-8v-8a8 8 0 0 1 16 0v8a8 8 0 0 1 -8 8z"/><path d="m136 336a48 48 0 0 1 0-96 8 8 0 0 1 8 8v32h32a8 8 0 0 1 8 8 48.054 48.054 0 0 1 -48 48zm-8-78.988a32 32 0 1 0 38.987 38.988h-30.987a8 8 0 0 1 -8-8z"/><path d="m200 272h-40a8 8 0 0 1 -8-8v-40a8 8 0 0 1 8-8 48.054 48.054 0 0 1 48 48 8 8 0 0 1 -8 8zm-32-16h22.987a32.118 32.118 0 0 0 -22.987-22.988z"/><path d="m424 160h-96a8 8 0 0 1 -8-8v-72a8 8 0 0 1 16 0v64h88a8 8 0 0 1 0 16z"/><path d="m360 136a8 8 0 0 1 -8-8v-24a8 8 0 0 1 16 0v24a8 8 0 0 1 -8 8z"/><path d="m384 136a8 8 0 0 1 -8-8v-56a8 8 0 0 1 16 0v56a8 8 0 0 1 -8 8z"/><path d="m408 136a8 8 0 0 1 -8-8v-40a8 8 0 0 1 16 0v40a8 8 0 0 1 -8 8z"/><path d="m376 328a48 48 0 1 1 48-48 48.054 48.054 0 0 1 -48 48zm0-80a32 32 0 1 0 32 32 32.036 32.036 0 0 0 -32-32z"/><path d="m403.2 310.4-32-24a8 8 0 0 1 -3.2-6.4v-40h16v36l28.8 21.6z"/><path d="m350.111 288h35.777v16h-35.777z" transform="matrix(.447 -.894 .894 .447 -61.325 492.774)"/></g></g></svg>